<svg width="132" height="132" viewBox="0 0 132 132" fill="none" xmlns="http://www.w3.org/2000/svg">
<path fill-rule="evenodd" clip-rule="evenodd" d="M66 132C102.451 132 132 102.451 132 66C132 29.5492 102.451 0 66 0C29.5492 0 0 29.5492 0 66C0 102.451 29.5492 132 66 132ZM23.25 84.5938V91H43.6562V84.5938L38.9375 83.5938V74.5L46.4006 74.5921L52.0625 91H65.3125V84.625L61 83.5312L56.2486 71.9077C58.2557 70.6064 59.8708 68.9809 61.0938 67.0312C62.5521 64.7396 63.2812 62.2604 63.2812 59.5938C63.2812 56.6979 62.5625 54.1979 61.125 52.0938C59.6875 49.9688 57.6458 48.3333 55 47.1875C52.3542 46.0417 49.2292 45.4688 45.625 45.4688H23.25V51.9375L27.9688 52.9375V83.5938L23.25 84.5938ZM45.75 66.0938H38.9375V53.875H45.625C47.7917 53.875 49.4583 54.4688 50.625 55.6562C51.7917 56.8229 52.375 58.375 52.375 60.3125C52.375 62.1875 51.8021 63.625 50.6562 64.625C49.5104 65.6042 47.875 66.0938 45.75 66.0938ZM76.7812 84.5938V91H97.25V84.5938L92.5 83.5938V54H99.5938L99.8438 58.9062H108.219V45.5H65.9375V58.9062H74.2188L74.5 54H81.5312V83.5938L76.7812 84.5938Z" fill="#30A46C"/>
</svg>
